<svg width="31" height="31" viewBox="0 0 31 31" fill="none" xmlns="http://www.w3.org/2000/svg">
<path fill-rule="evenodd" clip-rule="evenodd" d="M14.5505 4.30339L14.4423 4.26278C11.1034 3.00982 7.38161 3.00982 4.04275 4.26278C2.87513 4.70095 2.06116 5.78604 2.06116 7.04372V24.3422C2.06116 26.2343 4.03737 27.3565 5.70599 26.7303C7.97532 25.8787 10.5097 25.8787 12.779 26.7303L14.5505 27.3951V4.30339ZM16.4239 27.3951L18.1953 26.7303C20.4646 25.8787 22.999 25.8787 25.2684 26.7303C26.937 27.3565 28.9132 26.2343 28.9132 24.3422V7.04372C28.9132 5.78604 28.0992 4.70095 26.9316 4.26278C23.5927 3.00982 19.8709 3.00982 16.5321 4.26278L16.4239 4.30338V27.3951Z" fill="#6E98D7"/>
</svg>
