<svg width="31" height="31" viewBox="0 0 31 31" fill="none" xmlns="http://www.w3.org/2000/svg">
<path d="M24.3329 25.7641C21.8921 28.2049 15.6413 25.9115 10.3713 20.6415C5.10141 15.3716 2.80795 9.12083 5.24875 6.68001L6.85584 5.07293C7.9653 3.96347 9.79342 3.99279 10.9391 5.13843L13.4283 7.62766C14.5739 8.7733 14.6032 10.6014 13.4938 11.7109L13.1486 12.0561C12.5496 12.6551 12.491 13.6214 13.0476 14.2959C13.5845 14.9465 14.1632 15.5945 14.7908 16.2221C15.4184 16.8496 16.0664 17.4284 16.717 17.9653C17.3915 18.5219 18.3578 18.4633 18.9568 17.8643L19.302 17.5191C20.4115 16.4096 22.2396 16.4389 23.3852 17.5846L25.8744 20.0738C27.0201 21.2195 27.0494 23.0476 25.9399 24.157L24.3329 25.7641Z" fill="#F6BD33" stroke="#F6BD33" stroke-width="1.8734"/>
</svg>
