<svg width="65" height="65" viewBox="0 0 65 65" fill="none" xmlns="http://www.w3.org/2000/svg">
<path fill-rule="evenodd" clip-rule="evenodd" d="M0.697876 17.7083C0.697876 8.31373 8.3137 0.697906 17.7083 0.697906H47.2916C56.6862 0.697906 64.302 8.31373 64.302 17.7083V47.2917C64.302 56.6862 56.6862 64.3021 47.2916 64.3021H17.7083C8.3137 64.3021 0.697876 56.6862 0.697876 47.2917V17.7083ZM23.5353 32.5897L29.4519 38.5064C30.3184 39.3729 31.7232 39.3729 32.5897 38.5064L44.4231 26.6731C45.2895 25.8066 45.2895 24.4018 44.4231 23.5353C43.5566 22.6688 42.1518 22.6688 41.2853 23.5353L31.0208 33.7997L26.6731 29.4519C25.8066 28.5855 24.4018 28.5855 23.5353 29.4519C22.6688 30.3184 22.6688 31.7233 23.5353 32.5897Z" fill="#265294"/>
</svg>
