<svg width="31" height="31" viewBox="0 0 31 31" fill="none" xmlns="http://www.w3.org/2000/svg">
<path fill-rule="evenodd" clip-rule="evenodd" d="M18.2717 2.08189C18.1943 2.07663 18.1166 2.07397 18.0385 2.07397H10.4659C7.18948 2.07397 4.53345 4.73001 4.53345 8.0064V22.9936C4.53345 26.27 7.18948 28.926 10.4659 28.926H20.4573C23.7337 28.926 26.3897 26.27 26.3897 22.9936V11.441H21.7063C19.8094 11.441 18.2717 9.90326 18.2717 8.0064V2.08189ZM9.52917 15.5C9.52917 14.9827 9.94855 14.5633 10.4659 14.5633H20.4573C20.9746 14.5633 21.394 14.9827 21.394 15.5C21.394 16.0173 20.9746 16.4367 20.4573 16.4367H10.4659C9.94855 16.4367 9.52917 16.0173 9.52917 15.5ZM10.4659 20.8079C9.94855 20.8079 9.52917 21.2273 9.52917 21.7446C9.52917 22.262 9.94855 22.6813 10.4659 22.6813H15.4616C15.9789 22.6813 16.3983 22.262 16.3983 21.7446C16.3983 21.2273 15.9789 20.8079 15.4616 20.8079H10.4659Z" fill="#F6BD33"/>
<path d="M25.8546 9.56756C25.7758 9.44341 25.6887 9.32389 25.5937 9.20986L20.677 3.30978C20.5172 3.11809 20.3386 2.94619 20.1451 2.79588V8.0064C20.1451 8.86861 20.844 9.56756 21.7063 9.56756H25.8546Z" fill="#F6BD33"/>
</svg>
