<svg width="31" height="31" viewBox="0 0 31 31" fill="none" xmlns="http://www.w3.org/2000/svg">
<path d="M3.67358 14.1742C3.67358 12.6452 4.37371 11.2005 5.57374 10.2531L12.4429 4.8301C14.2579 3.39721 16.819 3.39722 18.634 4.8301L25.5031 10.2531C26.7032 11.2005 27.4033 12.6452 27.4033 14.1742V22.3691C27.4033 25.1282 25.1666 27.3649 22.4076 27.3649H20.5342C19.8444 27.3649 19.2852 26.8057 19.2852 26.1159V22.3691C19.2852 20.9896 18.1669 19.8713 16.7874 19.8713H14.2895C12.91 19.8713 11.7916 20.9896 11.7916 22.3691V26.1159C11.7916 26.8057 11.2325 27.3649 10.5427 27.3649H8.66931C5.91025 27.3649 3.67358 25.1282 3.67358 22.3691L3.67358 14.1742Z" fill="#6E98D7" stroke="#6E98D7" stroke-width="1.8734"/>
</svg>
