<svg width="91" height="90" viewBox="0 0 91 90" fill="none" xmlns="http://www.w3.org/2000/svg">
<path fill-rule="evenodd" clip-rule="evenodd" d="M0.708344 24.1667C0.708344 10.9349 11.4349 0.208374 24.6667 0.208374H66.3333C79.5652 0.208374 90.2917 10.9349 90.2917 24.1667V65.8334C90.2917 79.0652 79.5652 89.7917 66.3333 89.7917H24.6667C11.4349 89.7917 0.708344 79.0652 0.708344 65.8334V24.1667ZM32.8736 45.1264L41.2069 53.4597C42.4273 54.6801 44.406 54.6801 45.6264 53.4597L62.293 36.793C63.5134 35.5727 63.5134 33.594 62.293 32.3736C61.0727 31.1532 59.094 31.1532 57.8736 32.3736L43.4167 46.8306L37.293 40.707C36.0727 39.4866 34.094 39.4866 32.8736 40.707C31.6532 41.9273 31.6532 43.906 32.8736 45.1264Z" fill="#F6BD33"/>
</svg>
